<svg xmlns="http://www.w3.org/2000/svg" xmlns:xlink="http://www.w3.org/1999/xlink" viewBox="0 0 65 66" fill="#fff" fill-rule="evenodd" stroke="#000" stroke-linecap="round" stroke-linejoin="round"><use xlink:href="#A" x=".5" y=".5"/><symbol id="A" overflow="visible"><path d="M31.37 35.067s-3.83-2.24-2.47-5.42a26 26 0 0 1 2.76-4c1.043-1.244 2.47 2.52 2.9 4 0 0 1.3 3.18-2.15 5.42l-.7-4.2zm15.3 8.3s3.6 0 3.94 2.8a21.99 21.99 0 0 1-.31 3.93 11.81 11.81 0 0 1-3.66-1.64 3.64 3.64 0 0 1-.69-4.67l2.2 2.66zm-28.87.3s1.52 3.5-1 5a23.09 23.09 0 0 1-4 1.39c-1.373.34-.44-3 0-4.25a3.85 3.85 0 0 1 4.23-2.66l-1.58 3.27zm36.15-12.42s1.9-4 5.2-2.93c1.485.667 2.904 1.47 4.24 2.4s-2.3 2.7-3.76 3.23c0 0-3 1.58-5.58-1.68l4.13-1.05zm-44.33.8s-2.5 3.66-5.58 2.1a26.65 26.65 0 0 1-3.82-3c-1.179-1.114 2.7-2.3 4.2-2.62 0 0 3.26-1.08 5.26 2.52l-4.25.4zm14.18-16.59s-4.95-.73-4.82-4.6a29 29 0 0 1 1.26-5.3c.585-1.723 3.56 1.58 4.66 2.96 0 0 2.68 2.75-.05 6.5l-2.46-4.06zm-8.85 2.1s-4.7.23-5.3-3.35a28.36 28.36 0 0 1 .19-5.14c.219-1.704 3.66.8 4.88 1.88 0 0 3 2.05 1.14 6l-3-3.3zm24.48-2.43s-3.15-3.9-.45-6.64c1.41-1.159 2.923-2.187 4.52-3.07s1.6 3.63 1.46 5.36c0 0 .1 3.83-4.44 4.76l.94-4.66zm-8.1-2.9s-4.92-2.82-3.2-6.83a33.43 33.43 0 0 1 3.51-5.08c1.324-1.581 3.16 3.17 3.74 5.06 0 0 1.7 4-2.74 6.84l-.92-5.3zm16.7 4.54s-2-4.07.94-6c1.479-.723 3.022-1.306 4.61-1.74s.7 3.53.2 5c0 0-.67 3.4-4.88 3.3l1.77-3.92zm-16.65 6.9s-3.83-2.24-2.47-5.42a26.41 26.41 0 0 1 2.76-4c1.041-1.246 2.47 2.52 2.9 4 0 0 1.3 3.18-2.15 5.42l-.7-4.2zm-7.03 3.65s-5.88.24-6.64-4.27c-.131-2.155-.061-4.318.21-6.46s4.56 1.05 6.1 2.4c0 0 3.73 2.6 1.48 7.6l-3.8-4.17zm-10.75-1.57s-5.14 2.87-7.8-.83a34.64 34.64 0 0 1-2.73-5.86c-.725-2.034 4.55-1.12 6.54-.6 0 0 4.5.65 4.73 6.1l-5.27-2zm24.53.95s-2.33-5.38 1.57-7.74a35.43 35.43 0 0 1 6.1-2.16c2.095-.532.7 4.63 0 6.56 0 0-1.08 4.43-6.53 4.14l2.53-5.05zm10.97-2.33s.45-5.86 5-6.1c2.155.117 4.294.435 6.39.95s-1.57 4.4-3.1 5.78c0 0-3 3.4-7.7.6l4.61-3.28zm-.2 13.82s3.83-4.47 7.65-1.95a35.28 35.28 0 0 1 4.59 4.55c1.388 1.654-3.88 2.63-5.93 2.82 0 0-4.45 1-6.56-4.08l5.65.08zm-34.2 1.37s-2.23 5.45-6.65 4.26a34.94 34.94 0 0 1-5.78-2.87c-1.834-1.133 2.85-3.72 4.73-4.55 0 0 3.93-2.3 7.5 1.8l-5.4 1.7zm24.78-9.64H51.6l-14.17 21.23v13.17h-11.2v-13.24l-14.08-21.16h12.4l7.17 12.4z" stroke="none" fill="#71c0e5" fill-rule="nonzero"/></symbol></svg>